<mxfile host="app.diagrams.net" agent="Mozilla/5.0 (Windows NT 10.0; Win64; x64) AppleWebKit/537.36 (KHTML, like Gecko) Chrome/131.0.0.0 Safari/537.36 OPR/116.0.0.0" version="26.0.14">
  <diagram id="C5RBs43oDa-KdzZeNtuy" name="Page-1">
    <mxGraphModel dx="1186" dy="632" grid="1" gridSize="10" guides="1" tooltips="1" connect="1" arrows="1" fold="1" page="1" pageScale="1" pageWidth="1169" pageHeight="1654" math="0" shadow="0">
      <root>
        <mxCell id="WIyWlLk6GJQsqaUBKTNV-0" />
        <mxCell id="WIyWlLk6GJQsqaUBKTNV-1" parent="WIyWlLk6GJQsqaUBKTNV-0" />
        <mxCell id="wZMXPGm0zLTQQNoU6Yco-39" style="edgeStyle=orthogonalEdgeStyle;rounded=0;orthogonalLoop=1;jettySize=auto;html=1;exitX=0.5;exitY=0;exitDx=0;exitDy=0;entryX=0.5;entryY=0;entryDx=0;entryDy=0;" parent="WIyWlLk6GJQsqaUBKTNV-1" source="wZMXPGm0zLTQQNoU6Yco-0" target="wZMXPGm0zLTQQNoU6Yco-0" edge="1">
          <mxGeometry relative="1" as="geometry" />
        </mxCell>
        <mxCell id="wZMXPGm0zLTQQNoU6Yco-0" value="Tile" style="swimlane;fontStyle=1;align=center;verticalAlign=top;childLayout=stackLayout;horizontal=1;startSize=26;horizontalStack=0;resizeParent=1;resizeParentMax=0;resizeLast=0;collapsible=1;marginBottom=0;whiteSpace=wrap;html=1;" parent="WIyWlLk6GJQsqaUBKTNV-1" vertex="1">
          <mxGeometry x="320" y="550" width="160" height="120" as="geometry">
            <mxRectangle x="280" y="110" width="60" height="30" as="alternateBounds" />
          </mxGeometry>
        </mxCell>
        <mxCell id="wZMXPGm0zLTQQNoU6Yco-1" value="+ state: TileState&lt;div&gt;+ isMarked: boolean&lt;/div&gt;&lt;div&gt;+ isSolutionCell: boolean&lt;/div&gt;" style="text;strokeColor=none;fillColor=none;align=left;verticalAlign=top;spacingLeft=4;spacingRight=4;overflow=hidden;rotatable=0;points=[[0,0.5],[1,0.5]];portConstraint=eastwest;whiteSpace=wrap;html=1;" parent="wZMXPGm0zLTQQNoU6Yco-0" vertex="1">
          <mxGeometry y="26" width="160" height="54" as="geometry" />
        </mxCell>
        <mxCell id="wZMXPGm0zLTQQNoU6Yco-2" value="&#xa;" style="line;strokeWidth=1;fillColor=none;align=left;verticalAlign=middle;spacingTop=-1;spacingLeft=3;spacingRight=3;rotatable=0;labelPosition=right;points=[];portConstraint=eastwest;strokeColor=inherit;" parent="wZMXPGm0zLTQQNoU6Yco-0" vertex="1">
          <mxGeometry y="80" width="160" height="10" as="geometry" />
        </mxCell>
        <mxCell id="wZMXPGm0zLTQQNoU6Yco-62" value="+ setFilled(): void" style="text;html=1;align=center;verticalAlign=middle;resizable=0;points=[];autosize=1;strokeColor=none;fillColor=none;" parent="wZMXPGm0zLTQQNoU6Yco-0" vertex="1">
          <mxGeometry y="90" width="160" height="30" as="geometry" />
        </mxCell>
        <mxCell id="wZMXPGm0zLTQQNoU6Yco-19" style="edgeStyle=orthogonalEdgeStyle;rounded=0;orthogonalLoop=1;jettySize=auto;html=1;exitX=0.5;exitY=1;exitDx=0;exitDy=0;" parent="WIyWlLk6GJQsqaUBKTNV-1" source="wZMXPGm0zLTQQNoU6Yco-15" edge="1">
          <mxGeometry relative="1" as="geometry">
            <mxPoint x="650.3478260869565" y="200" as="targetPoint" />
          </mxGeometry>
        </mxCell>
        <mxCell id="wZMXPGm0zLTQQNoU6Yco-15" value="Nonogram" style="swimlane;fontStyle=1;align=center;verticalAlign=top;childLayout=stackLayout;horizontal=1;startSize=26;horizontalStack=0;resizeParent=1;resizeParentMax=0;resizeLast=0;collapsible=1;marginBottom=0;whiteSpace=wrap;html=1;" parent="WIyWlLk6GJQsqaUBKTNV-1" vertex="1">
          <mxGeometry x="570" y="80" width="160" height="60" as="geometry" />
        </mxCell>
        <mxCell id="wZMXPGm0zLTQQNoU6Yco-16" value="+ main(args: string)" style="text;strokeColor=none;fillColor=none;align=left;verticalAlign=top;spacingLeft=4;spacingRight=4;overflow=hidden;rotatable=0;points=[[0,0.5],[1,0.5]];portConstraint=eastwest;whiteSpace=wrap;html=1;" parent="wZMXPGm0zLTQQNoU6Yco-15" vertex="1">
          <mxGeometry y="26" width="160" height="26" as="geometry" />
        </mxCell>
        <mxCell id="wZMXPGm0zLTQQNoU6Yco-17" value="" style="line;strokeWidth=1;fillColor=none;align=left;verticalAlign=middle;spacingTop=-1;spacingLeft=3;spacingRight=3;rotatable=0;labelPosition=right;points=[];portConstraint=eastwest;strokeColor=inherit;" parent="wZMXPGm0zLTQQNoU6Yco-15" vertex="1">
          <mxGeometry y="52" width="160" height="8" as="geometry" />
        </mxCell>
        <mxCell id="wZMXPGm0zLTQQNoU6Yco-21" value="Game" style="swimlane;fontStyle=1;align=center;verticalAlign=top;childLayout=stackLayout;horizontal=1;startSize=26;horizontalStack=0;resizeParent=1;resizeParentMax=0;resizeLast=0;collapsible=1;marginBottom=0;whiteSpace=wrap;html=1;" parent="WIyWlLk6GJQsqaUBKTNV-1" vertex="1">
          <mxGeometry x="570" y="200" width="170" height="148" as="geometry" />
        </mxCell>
        <mxCell id="wZMXPGm0zLTQQNoU6Yco-22" value="+ puzzleField: PuzzleField&lt;div&gt;+ state: GameState&lt;/div&gt;&lt;div&gt;+ upperLegend: ColumnHints&lt;/div&gt;&lt;div&gt;+ leftLegend: RowHints&lt;/div&gt;&lt;div&gt;&lt;br&gt;&lt;/div&gt;" style="text;strokeColor=none;fillColor=none;align=left;verticalAlign=top;spacingLeft=4;spacingRight=4;overflow=hidden;rotatable=0;points=[[0,0.5],[1,0.5]];portConstraint=eastwest;whiteSpace=wrap;html=1;" parent="wZMXPGm0zLTQQNoU6Yco-21" vertex="1">
          <mxGeometry y="26" width="170" height="74" as="geometry" />
        </mxCell>
        <mxCell id="wZMXPGm0zLTQQNoU6Yco-23" value="" style="line;strokeWidth=1;fillColor=none;align=left;verticalAlign=middle;spacingTop=-1;spacingLeft=3;spacingRight=3;rotatable=0;labelPosition=right;points=[];portConstraint=eastwest;strokeColor=inherit;" parent="wZMXPGm0zLTQQNoU6Yco-21" vertex="1">
          <mxGeometry y="100" width="170" height="8" as="geometry" />
        </mxCell>
        <mxCell id="wZMXPGm0zLTQQNoU6Yco-24" value="+ startGame(PuzzleField)&lt;div&gt;+ showWin()&lt;/div&gt;" style="text;strokeColor=none;fillColor=none;align=left;verticalAlign=top;spacingLeft=4;spacingRight=4;overflow=hidden;rotatable=0;points=[[0,0.5],[1,0.5]];portConstraint=eastwest;whiteSpace=wrap;html=1;" parent="wZMXPGm0zLTQQNoU6Yco-21" vertex="1">
          <mxGeometry y="108" width="170" height="40" as="geometry" />
        </mxCell>
        <mxCell id="wZMXPGm0zLTQQNoU6Yco-29" style="edgeStyle=orthogonalEdgeStyle;rounded=0;orthogonalLoop=1;jettySize=auto;html=1;exitX=0.5;exitY=0;exitDx=0;exitDy=0;" parent="WIyWlLk6GJQsqaUBKTNV-1" source="wZMXPGm0zLTQQNoU6Yco-25" target="wZMXPGm0zLTQQNoU6Yco-21" edge="1">
          <mxGeometry relative="1" as="geometry">
            <Array as="points">
              <mxPoint x="400" y="300" />
            </Array>
          </mxGeometry>
        </mxCell>
        <mxCell id="wZMXPGm0zLTQQNoU6Yco-25" value="PuzzleField" style="swimlane;fontStyle=1;align=center;verticalAlign=top;childLayout=stackLayout;horizontal=1;startSize=26;horizontalStack=0;resizeParent=1;resizeParentMax=0;resizeLast=0;collapsible=1;marginBottom=0;whiteSpace=wrap;html=1;" parent="WIyWlLk6GJQsqaUBKTNV-1" vertex="1">
          <mxGeometry x="320" y="348" width="160" height="138" as="geometry" />
        </mxCell>
        <mxCell id="wZMXPGm0zLTQQNoU6Yco-27" value="" style="line;strokeWidth=1;fillColor=none;align=left;verticalAlign=middle;spacingTop=-1;spacingLeft=3;spacingRight=3;rotatable=0;labelPosition=right;points=[];portConstraint=eastwest;strokeColor=inherit;" parent="wZMXPGm0zLTQQNoU6Yco-25" vertex="1">
          <mxGeometry y="26" width="160" height="8" as="geometry" />
        </mxCell>
        <mxCell id="wZMXPGm0zLTQQNoU6Yco-28" value="+ method(type): type" style="text;strokeColor=none;fillColor=none;align=left;verticalAlign=top;spacingLeft=4;spacingRight=4;overflow=hidden;rotatable=0;points=[[0,0.5],[1,0.5]];portConstraint=eastwest;whiteSpace=wrap;html=1;" parent="wZMXPGm0zLTQQNoU6Yco-25" vertex="1">
          <mxGeometry y="34" width="160" height="26" as="geometry" />
        </mxCell>
        <mxCell id="wZMXPGm0zLTQQNoU6Yco-47" value="+ field: Tile[][]" style="text;strokeColor=none;fillColor=none;align=left;verticalAlign=top;spacingLeft=4;spacingRight=4;overflow=hidden;rotatable=0;points=[[0,0.5],[1,0.5]];portConstraint=eastwest;whiteSpace=wrap;html=1;" parent="wZMXPGm0zLTQQNoU6Yco-25" vertex="1">
          <mxGeometry y="60" width="160" height="26" as="geometry" />
        </mxCell>
        <mxCell id="wZMXPGm0zLTQQNoU6Yco-48" value="+ rowCount: int" style="text;strokeColor=none;fillColor=none;align=left;verticalAlign=top;spacingLeft=4;spacingRight=4;overflow=hidden;rotatable=0;points=[[0,0.5],[1,0.5]];portConstraint=eastwest;whiteSpace=wrap;html=1;" parent="wZMXPGm0zLTQQNoU6Yco-25" vertex="1">
          <mxGeometry y="86" width="160" height="26" as="geometry" />
        </mxCell>
        <mxCell id="wZMXPGm0zLTQQNoU6Yco-49" value="+ columnCount: int" style="text;strokeColor=none;fillColor=none;align=left;verticalAlign=top;spacingLeft=4;spacingRight=4;overflow=hidden;rotatable=0;points=[[0,0.5],[1,0.5]];portConstraint=eastwest;whiteSpace=wrap;html=1;" parent="wZMXPGm0zLTQQNoU6Yco-25" vertex="1">
          <mxGeometry y="112" width="160" height="26" as="geometry" />
        </mxCell>
        <mxCell id="wZMXPGm0zLTQQNoU6Yco-37" value="" style="group" parent="WIyWlLk6GJQsqaUBKTNV-1" vertex="1" connectable="0">
          <mxGeometry x="810" y="200" width="110" height="110" as="geometry" />
        </mxCell>
        <mxCell id="wZMXPGm0zLTQQNoU6Yco-34" value="«enumeration»&lt;br&gt;&lt;b&gt;GameState&lt;/b&gt;" style="html=1;whiteSpace=wrap;" parent="wZMXPGm0zLTQQNoU6Yco-37" vertex="1">
          <mxGeometry width="110" height="50" as="geometry" />
        </mxCell>
        <mxCell id="wZMXPGm0zLTQQNoU6Yco-36" value="+ PLAYING&lt;div&gt;+ SOLVED&lt;/div&gt;&lt;div&gt;+ FAILED&lt;/div&gt;" style="rounded=0;whiteSpace=wrap;html=1;glass=0;shadow=0;fillColor=none;align=left;" parent="wZMXPGm0zLTQQNoU6Yco-37" vertex="1">
          <mxGeometry y="50" width="110" height="60" as="geometry" />
        </mxCell>
        <mxCell id="wZMXPGm0zLTQQNoU6Yco-38" style="edgeStyle=orthogonalEdgeStyle;rounded=0;orthogonalLoop=1;jettySize=auto;html=1;exitX=0;exitY=0.25;exitDx=0;exitDy=0;" parent="WIyWlLk6GJQsqaUBKTNV-1" source="wZMXPGm0zLTQQNoU6Yco-36" target="wZMXPGm0zLTQQNoU6Yco-21" edge="1">
          <mxGeometry relative="1" as="geometry">
            <Array as="points">
              <mxPoint x="810" y="259" />
            </Array>
          </mxGeometry>
        </mxCell>
        <mxCell id="wZMXPGm0zLTQQNoU6Yco-46" value="&lt;b&gt;RowHints&lt;/b&gt;" style="swimlane;fontStyle=0;childLayout=stackLayout;horizontal=1;startSize=26;fillColor=none;horizontalStack=0;resizeParent=1;resizeParentMax=0;resizeLast=0;collapsible=1;marginBottom=0;whiteSpace=wrap;html=1;" parent="WIyWlLk6GJQsqaUBKTNV-1" vertex="1">
          <mxGeometry x="200" y="114" width="140" height="86" as="geometry" />
        </mxCell>
        <mxCell id="wZMXPGm0zLTQQNoU6Yco-55" value="- hints: List&amp;lt;int&amp;gt;" style="text;html=1;align=center;verticalAlign=middle;resizable=0;points=[];autosize=1;strokeColor=none;fillColor=none;" parent="wZMXPGm0zLTQQNoU6Yco-46" vertex="1">
          <mxGeometry y="26" width="140" height="30" as="geometry" />
        </mxCell>
        <mxCell id="wZMXPGm0zLTQQNoU6Yco-56" value="+ getHints(): List&amp;lt;int&amp;gt;" style="text;html=1;align=center;verticalAlign=middle;resizable=0;points=[];autosize=1;strokeColor=none;fillColor=none;" parent="wZMXPGm0zLTQQNoU6Yco-46" vertex="1">
          <mxGeometry y="56" width="140" height="30" as="geometry" />
        </mxCell>
        <mxCell id="wZMXPGm0zLTQQNoU6Yco-51" value="" style="edgeStyle=none;orthogonalLoop=1;jettySize=auto;html=1;rounded=0;entryX=0.5;entryY=0;entryDx=0;entryDy=0;" parent="WIyWlLk6GJQsqaUBKTNV-1" source="wZMXPGm0zLTQQNoU6Yco-25" target="wZMXPGm0zLTQQNoU6Yco-0" edge="1">
          <mxGeometry width="100" relative="1" as="geometry">
            <mxPoint x="350" y="510" as="sourcePoint" />
            <mxPoint x="450" y="510" as="targetPoint" />
            <Array as="points" />
          </mxGeometry>
        </mxCell>
        <mxCell id="wZMXPGm0zLTQQNoU6Yco-57" value="&lt;b&gt;Colum&lt;/b&gt;&lt;b style=&quot;background-color: transparent; color: light-dark(rgb(0, 0, 0), rgb(255, 255, 255));&quot;&gt;nHints&lt;/b&gt;" style="swimlane;fontStyle=0;childLayout=stackLayout;horizontal=1;startSize=26;fillColor=none;horizontalStack=0;resizeParent=1;resizeParentMax=0;resizeLast=0;collapsible=1;marginBottom=0;whiteSpace=wrap;html=1;" parent="WIyWlLk6GJQsqaUBKTNV-1" vertex="1">
          <mxGeometry x="200" y="231" width="140" height="86" as="geometry" />
        </mxCell>
        <mxCell id="wZMXPGm0zLTQQNoU6Yco-58" value="- hints: List&amp;lt;int&amp;gt;" style="text;html=1;align=center;verticalAlign=middle;resizable=0;points=[];autosize=1;strokeColor=none;fillColor=none;" parent="wZMXPGm0zLTQQNoU6Yco-57" vertex="1">
          <mxGeometry y="26" width="140" height="30" as="geometry" />
        </mxCell>
        <mxCell id="wZMXPGm0zLTQQNoU6Yco-59" value="+ getHints(): List&amp;lt;int&amp;gt;" style="text;html=1;align=center;verticalAlign=middle;resizable=0;points=[];autosize=1;strokeColor=none;fillColor=none;" parent="wZMXPGm0zLTQQNoU6Yco-57" vertex="1">
          <mxGeometry y="56" width="140" height="30" as="geometry" />
        </mxCell>
        <mxCell id="wZMXPGm0zLTQQNoU6Yco-60" style="edgeStyle=orthogonalEdgeStyle;rounded=0;orthogonalLoop=1;jettySize=auto;html=1;exitX=0;exitY=0.5;exitDx=0;exitDy=0;" parent="WIyWlLk6GJQsqaUBKTNV-1" source="wZMXPGm0zLTQQNoU6Yco-22" target="wZMXPGm0zLTQQNoU6Yco-57" edge="1">
          <mxGeometry relative="1" as="geometry">
            <Array as="points">
              <mxPoint x="570" y="274" />
            </Array>
          </mxGeometry>
        </mxCell>
        <mxCell id="wZMXPGm0zLTQQNoU6Yco-61" style="edgeStyle=orthogonalEdgeStyle;rounded=0;orthogonalLoop=1;jettySize=auto;html=1;exitX=0;exitY=0.5;exitDx=0;exitDy=0;entryX=1.006;entryY=0.611;entryDx=0;entryDy=0;entryPerimeter=0;" parent="WIyWlLk6GJQsqaUBKTNV-1" source="wZMXPGm0zLTQQNoU6Yco-22" target="wZMXPGm0zLTQQNoU6Yco-55" edge="1">
          <mxGeometry relative="1" as="geometry">
            <mxPoint x="600" y="263" as="sourcePoint" />
            <mxPoint x="370" y="135.5" as="targetPoint" />
            <Array as="points">
              <mxPoint x="485" y="263" />
              <mxPoint x="485" y="158" />
            </Array>
          </mxGeometry>
        </mxCell>
      </root>
    </mxGraphModel>
  </diagram>
</mxfile>
